<svg version="1.0" xmlns="http://www.w3.org/2000/svg" width="1149.333" height="354.667" viewBox="0 0 862 266"><path d="M675.5 36c-2.6 1.4-5 1.9-6.9 1.5-9-1.7-18.6 7-18.6 16.8 0 1.8.7 4.5 1.5 6 1.4 2.8 1.5 15 .1 16.5-1.4 1.3-.4 2.2 2.4 2.2 2.6 0 3 .3 3 2.9 0 3.9 4.9 8.1 9.5 8.1 4 0 9-3.8 9.9-7.5.7-2.9 3.6-3.4 3.6-.6 0 5.5 8.1 9.6 14.1 7.1 3-1.3 5.9-5.4 5.9-8.5 0-1 1-1.5 3-1.5 3 0 4-1.3 2-2.5-.6-.4-.8-1.5-.5-2.6.9-2.9-1.3-12.4-3.6-15.3-1.6-2-1.8-3-1-4.5 1.8-3.3 1.3-7.6-1.2-9.9-1.3-1.2-2.8-2.2-3.5-2.2-.6 0-2.6-1.3-4.5-3-3.3-2.9-7.6-5-10.1-5-.6 0-3 .9-5.1 2zm16.3 21.7c1.2.3 2.2 1 2.2 1.5s1.3 2.8 3 5.1c1.6 2.3 3.2 6.1 3.6 8.4l.6 4.1-11.3.4c-6.3.1-16.5.2-22.8 0l-11.3-.3.5-4c.3-2.3.8-4.3 1-4.6.3-.3 2.2 0 4.2.7 7.3 2.4 16.5-1.8 19.5-8.9 1.2-3 4-4.3 7-3.3.8.2 2.5.7 3.8.9zM606.4 83c-1.1.4-3.3 2.3-4.8 4.1-2.5 2.9-2.8 3.9-2.3 8.4.3 3.1.1 5.4-.7 6-8 7-13.5 11.4-15.4 12.4l-2.4 1.3 2.3 2.4c1.8 1.9 2.5 2.2 2.9 1.1.6-1.8 13.5-12.7 14.9-12.7.6 0 1.1-.7 1.1-1.6 0-1.4.2-1.4 2.2 0 2.9 2 9.1 2 12.9 0 3.1-1.6 5.9-6.6 5.9-10.6 0-7.4-9.6-13.7-16.6-10.8zm10.9 4c6.8 5.4 2.6 16.9-6.1 17-4.4 0-6.8-1.4-8.8-5.2-4.8-9.2 6.7-18.3 14.9-11.8zm28 24c-1.8 1-3.9 3.2-4.7 4.9-1.5 2.8-1.5 2.9 1 3.5 1.4.4 2.9.4 3.5 0 .5-.3 1.6 0 2.4.6.8.7 2.2.9 3.1.6 1.1-.4 1.5-.2 1.1.7-.3.7.3 1.3 1.3 1.3s1.6-.5 1.3-1c-.4-.6.1-.6 1.3-.1 1 .4 4.9 1 8.7 1.2l6.7.3v-3.7c-.1-3.5-.5-4-5.7-7.1-6.8-3.9-14.8-4.4-20-1.2zm47.7.2c-1.4 1.1-3.7 2.5-5.2 3-2.4.9-2.8 1.5-2.8 4.9v3.9l6.8-.3c3.7-.2 7.9 0 9.4.4s2.7.4 2.7.1c-.3-1.9.3-2.2 2-1.2 1.2.6 2.2.6 2.6.1.6-1.1 4.5-1 4.5 0 0 .4.8.6 1.8.4.9-.2 2.1-.4 2.6-.4 1.1-.1-.1-4.7-2-7.6-3.6-5.5-17.3-7.6-22.4-3.3zm-152.4 21.4c-.9.8-1.6 2.3-1.6 3.2 0 .9 2.5 10.7 5.5 21.7 4 14.8 6 20.5 7.6 21.7 1.8 1.5 4.2 1.8 15.8 1.8h13.7l1.8 6.1c1 3.3 1.6 6.3 1.4 6.5-.3.2-8 .7-17.1 1.1-17.9.7-18.4.9-14.6 5.7 1.9 2.4 2.6 2.6 10 2.6h7.9v63h213v-63l7.7.1c7.2.1 7.9-.1 10-2.5 4.5-5.3 3.8-5.6-12.6-5.6-14.4 0-14.9.1-14.4 2 .6 2.2.8 2.2-6.7 2.2-13.8 0-14.3 0-13.7-2.2.5-1.9 0-2-18.4-2-12.1 0-18.9-.4-18.9-1s1.1-6.3 2.5-12.8l2.6-11.7 6.6-6.7 6.7-6.8-3.8-3.9c-4.1-4.2-5.6-4.4-5.6-.9 0 2-.1 2-1.8.4-1.7-1.5-6.1-1.6-46.8-1.4l-44.8.3-1.2 2.3c-1.1 2.3-1.1 2.2-1.8-.9l-.6-3.3-3.3 3.2-3.3 3.2-2.3-8.8c-1.3-4.8-3-10.2-3.7-12l-1.3-3.2h-36.5c-31.8 0-36.7.2-38 1.6zm92.2 34c.6.4 6.2 25.4 6.2 27.5 0 1-23.1 1-36 .1l-8.5-.7-1.1-3.5c-.6-1.9-1.4-4.7-1.8-6.3l-.6-2.7h15.4c16 0 20.1-.8 21.1-4.1.3-.9-.5-5.6-1.8-10.3l-2.5-8.6 4.7 4.2c2.5 2.3 4.8 4.3 4.9 4.4z"/></svg>