<svg width="25" height="25" viewBox="0 0 25 25" fill="none" xmlns="http://www.w3.org/2000/svg">
<circle cx="12.5" cy="12.5" r="12.5" fill="#319F1C"/>
<path d="M12.5 4C8.9216 4 6 6.93968 6 10.5402C6 13.1381 7.06446 15.7359 9.10279 18.1059C10.6202 19.8606 12.115 20.8633 12.1829 20.8861C12.2735 20.9544 12.3868 21 12.5 21C12.6132 21 12.7265 20.9544 12.8171 20.8861C12.885 20.8633 14.3798 19.8606 15.8972 18.1059C17.9355 15.7359 19 13.1381 19 10.5402C19 6.93968 16.101 4 12.5 4ZM12.5 12.9786C11.1185 12.9786 10.0087 11.8619 10.0087 10.4718C10.0087 9.08177 11.1185 7.94236 12.5 7.94236C13.8815 7.94236 14.9913 9.08177 14.9913 10.4718C14.9913 11.8619 13.8815 12.9786 12.5 12.9786Z" fill="white"/>
</svg>
