<svg width="56" height="47" viewBox="0 0 56 47" fill="none" xmlns="http://www.w3.org/2000/svg">
<path d="M36.3178 25.6362L43.7952 25.6362C44.6854 25.6362 45.4422 25.9476 46.0653 26.5708C46.6882 27.194 47 27.9505 47 28.841L47 29.9087C47 32.2677 46.1653 34.2815 44.4961 35.9508C42.827 37.6194 40.8128 38.4541 38.454 38.4541L36.3178 38.4541C35.7393 38.4541 35.2388 38.6656 34.8158 39.0883C34.393 39.5112 34.1816 40.0117 34.1816 40.5903L34.1816 44.8634C34.1816 45.4419 34.3931 45.9429 34.8158 46.3658C35.2386 46.7881 35.7392 47 36.3178 47L38.454 47C40.7686 47 42.9768 46.5489 45.0801 45.6481C47.1831 44.7466 49.0021 43.5281 50.5378 41.9924C52.0734 40.4574 53.2916 38.6383 54.1929 36.535C55.0942 34.432 55.5449 32.2232 55.5449 29.9088L55.5449 6.40933C55.5449 4.62809 54.9221 3.11563 53.6759 1.86894C52.4295 0.622944 50.9159 -4.00943e-07 49.1357 -5.55134e-07L36.317 -1.66543e-06C34.5369 -1.81961e-06 33.0238 0.622942 31.7773 1.86894C30.5313 3.11563 29.9081 4.62808 29.9081 6.40933L29.9081 19.2269C29.9081 21.0078 30.5313 22.5203 31.7781 23.7671C33.024 25.013 34.5377 25.6362 36.3178 25.6362Z" fill="#319F1C"/>
<path d="M1.86737 23.7671C3.11325 25.013 4.62651 25.6362 6.40705 25.6362L13.8843 25.6362C14.774 25.6362 15.5316 25.9476 16.1537 26.5708C16.7771 27.194 17.0883 27.9505 17.0883 28.841L17.0883 29.9087C17.0883 32.2677 16.2536 34.2815 14.5852 35.9508C12.9167 37.6194 10.9027 38.4541 8.54267 38.4541L6.40693 38.4541C5.82831 38.4541 5.32743 38.6656 4.90477 39.0883C4.48235 39.5112 4.27014 40.0117 4.27014 40.5903L4.27014 44.8634C4.27014 45.4419 4.48223 45.9429 4.90477 46.3658C5.32731 46.7881 5.82819 47 6.40693 47L8.54267 47C10.8586 47 13.0663 46.5489 15.1702 45.6481C17.2728 44.7466 19.0912 43.5281 20.6269 41.9924C22.1627 40.4574 23.3814 38.6383 24.2824 36.535C25.1835 34.432 25.6348 32.2232 25.6348 29.9088L25.6348 6.40933C25.6348 4.62809 25.0114 3.11563 23.7655 1.86894C22.5195 0.622944 21.0062 -4.00903e-07 19.2258 -5.55115e-07L6.40776 -1.66536e-06C4.62721 -1.81958e-06 3.11406 0.622942 1.86819 1.86894C0.621376 3.11563 -0.000742035 4.62808 -0.000742192 6.40933L-0.000743323 19.2269C-0.000859828 21.0079 0.621376 22.5203 1.86737 23.7671Z" fill="#319F1C"/>
</svg>
