<svg width="25" height="26" viewBox="0 0 25 26" fill="none" xmlns="http://www.w3.org/2000/svg">
<path fill-rule="evenodd" clip-rule="evenodd" d="M12.4838 23.5785C10.6614 23.5785 8.86591 23.0895 7.29818 22.1716C7.13069 22.0778 6.93639 22.0242 6.7488 22.0242C6.64831 22.0242 6.55451 22.0376 6.46072 22.0644L3.04386 23.0024L4.23641 20.3828C4.39721 20.021 4.35701 19.6123 4.12252 19.2907C2.85627 17.5287 2.1796 15.4451 2.1796 13.2744C2.1796 7.59303 6.8024 2.97024 12.4838 2.97024C18.1651 2.97024 22.7879 7.59303 22.7879 13.2744C22.7879 18.9557 18.1651 23.5785 12.4838 23.5785ZM12.4838 0.786133C5.60315 0.786133 0.00219823 6.38709 0.00219823 13.2744C0.00219823 15.693 0.685568 18.0178 1.99201 20.0411L0.0959941 24.215C-0.0781982 24.6036 -0.0112012 25.0525 0.263487 25.3741C0.471178 25.6219 0.779364 25.7559 1.08755 25.7559C1.18805 25.7559 1.28184 25.7425 1.38234 25.7157L6.60141 24.282C8.41033 25.2468 10.4336 25.7559 12.4838 25.7559C19.371 25.7559 24.972 20.155 24.972 13.2744C24.972 6.38709 19.371 0.786133 12.4838 0.786133Z" fill="white"/>
<path fill-rule="evenodd" clip-rule="evenodd" d="M17.2882 15.1436C16.7656 14.8287 16.0822 14.4803 15.4659 14.7349C14.9969 14.9225 14.6954 15.6662 14.3872 16.0414C14.2264 16.2356 14.0388 16.2691 13.7976 16.1687C12.0289 15.4652 10.6689 14.2793 9.69071 12.6446C9.52322 12.3967 9.55002 12.1957 9.75101 11.9612C10.0458 11.6129 10.421 11.2176 10.5014 10.7486C10.5818 10.2796 10.3607 9.73023 10.1664 9.30815C9.9185 8.77888 9.63712 8.01511 9.10784 7.71362C8.61206 7.43893 7.96889 7.59303 7.52671 7.94811C6.76964 8.56449 6.40786 9.52924 6.42126 10.4873C6.42126 10.7553 6.45476 11.0233 6.51505 11.2913C6.66915 11.921 6.96393 12.5106 7.29222 13.0667C7.54011 13.4888 7.8081 13.8975 8.09618 14.2927C9.04754 15.5858 10.2267 16.7046 11.5934 17.5421C12.2768 17.9575 13.0138 18.326 13.7708 18.5738C14.6284 18.8619 15.3855 19.15 16.31 18.9758C17.2748 18.7949 18.2261 18.1987 18.6147 17.2674C18.7286 16.9927 18.7822 16.6845 18.7152 16.3897C18.5879 15.7935 17.7706 15.4317 17.2882 15.1436Z" fill="white"/>
</svg>
