<svg width="25" height="25" viewBox="0 0 25 25" fill="none" xmlns="http://www.w3.org/2000/svg">
<g clip-path="url(#clip0)">
<path d="M22.4082 3.25611H20.8388V2.0123C20.8388 1.65413 20.5457 1.36108 20.1876 1.36108C19.8294 1.36108 19.5364 1.65413 19.5364 2.0123V3.25611H13.1545V2.0123C13.1545 1.65413 12.8614 1.36108 12.5033 1.36108C12.1451 1.36108 11.8521 1.65413 11.8521 2.0123V3.25611H5.40506V2.0123C5.40506 1.65413 5.11201 1.36108 4.75385 1.36108C4.39568 1.36108 4.10263 1.65413 4.10263 2.0123V3.25611H2.59834C1.16567 3.25611 0 4.46085 0 5.89351V21.0342C0 22.4734 1.15916 23.639 2.59834 23.639H22.4017C23.8409 23.639 25 22.4734 25 21.0407V5.89351C25.0065 4.46085 23.8409 3.25611 22.4082 3.25611ZM23.7041 21.0342C23.7041 21.7505 23.131 22.3301 22.4147 22.3366H22.4082H2.59834C1.882 22.3366 1.30242 21.757 1.30242 21.0407V21.0342V5.89351C1.30242 5.17067 1.882 4.55853 2.59834 4.55853H4.10263V5.50279C4.10263 5.86095 4.39568 6.154 4.75385 6.154C5.11201 6.154 5.40506 5.86095 5.40506 5.50279V4.55853H11.8521V5.50279C11.8521 5.86095 12.1451 6.154 12.5033 6.154C12.8614 6.154 13.1545 5.86095 13.1545 5.50279V4.55853H19.5364V5.50279C19.5364 5.86095 19.8294 6.154 20.1876 6.154C20.5457 6.154 20.8388 5.86095 20.8388 5.50279V4.55853H22.4082C23.131 4.55853 23.7041 5.17718 23.7041 5.89351V21.0342Z" fill="#363130"/>
<path d="M10.7908 8.79126H9.65121C9.29305 8.79126 9 9.0843 9 9.44247C9 9.80064 9.29305 10.0937 9.65121 10.0937H10.7908C11.149 10.0937 11.442 9.80064 11.442 9.44247C11.442 9.0843 11.149 8.79126 10.7908 8.79126Z" fill="#363130"/>
<path d="M15.3231 8.79126H14.1834C13.8253 8.79126 13.5322 9.0843 13.5322 9.44247C13.5322 9.80064 13.8253 10.0937 14.1834 10.0937H15.3231C15.6812 10.0937 15.9743 9.80064 15.9743 9.44247C15.9743 9.0843 15.6877 8.79126 15.3231 8.79126Z" fill="#363130"/>
<path d="M19.8943 8.79126H18.7547C18.3966 8.79126 18.1035 9.0843 18.1035 9.44247C18.1035 9.80064 18.3966 10.0937 18.7547 10.0937H19.8943C20.2525 10.0937 20.5456 9.80064 20.5456 9.44247C20.5456 9.0843 20.2525 8.79126 19.8943 8.79126Z" fill="#363130"/>
<path d="M10.7908 13.2847H9.65121C9.29305 13.2847 9 13.5777 9 13.9359C9 14.294 9.29305 14.5871 9.65121 14.5871H10.7908C11.149 14.5871 11.442 14.294 11.442 13.9359C11.442 13.5777 11.149 13.2847 10.7908 13.2847Z" fill="#363130"/>
<path d="M6.22605 13.2847H5.07992C4.72176 13.2847 4.42871 13.5777 4.42871 13.9359C4.42871 14.294 4.72176 14.5871 5.07992 14.5871H6.21954C6.57771 14.5871 6.87075 14.294 6.87075 13.9359C6.87075 13.5777 6.58422 13.2847 6.22605 13.2847Z" fill="#363130"/>
<path d="M15.3231 13.2847H14.1834C13.8253 13.2847 13.5322 13.5777 13.5322 13.9359C13.5322 14.294 13.8253 14.5871 14.1834 14.5871H15.3231C15.6812 14.5871 15.9743 14.294 15.9743 13.9359C15.9743 13.5777 15.6877 13.2847 15.3231 13.2847Z" fill="#363130"/>
<path d="M19.8943 13.2847H18.7547C18.3966 13.2847 18.1035 13.5777 18.1035 13.9359C18.1035 14.294 18.3966 14.5871 18.7547 14.5871H19.8943C20.2525 14.5871 20.5456 14.294 20.5456 13.9359C20.5456 13.5777 20.2525 13.2847 19.8943 13.2847Z" fill="#363130"/>
<path d="M10.7908 17.7129H9.65121C9.29305 17.7129 9 18.0059 9 18.3641C9 18.7223 9.29305 19.0153 9.65121 19.0153H10.7908C11.149 19.0153 11.442 18.7223 11.442 18.3641C11.442 18.0059 11.149 17.7129 10.7908 17.7129Z" fill="#363130"/>
<path d="M6.22605 17.7129H5.07992C4.72176 17.7129 4.42871 18.0059 4.42871 18.3641C4.42871 18.7223 4.72176 19.0153 5.07992 19.0153H6.21954C6.57771 19.0153 6.87075 18.7223 6.87075 18.3641C6.87075 18.0059 6.58422 17.7129 6.22605 17.7129Z" fill="#363130"/>
<path d="M15.3231 17.7129H14.1834C13.8253 17.7129 13.5322 18.0059 13.5322 18.3641C13.5322 18.7223 13.8253 19.0153 14.1834 19.0153H15.3231C15.6812 19.0153 15.9743 18.7223 15.9743 18.3641C15.9743 18.0059 15.6877 17.7129 15.3231 17.7129Z" fill="#363130"/>
</g>
<defs>
<clipPath id="clip0">
<rect width="25" height="25" fill="white"/>
</clipPath>
</defs>
</svg>
