<svg width="25" height="25" viewBox="0 0 25 25" fill="none" xmlns="http://www.w3.org/2000/svg">
<circle cx="12.5" cy="12.5" r="12.5" fill="#319F1C"/>
<path d="M19.2432 16.7571V8.23193L14.4551 12.4167L19.2432 16.7571Z" fill="white"/>
<path d="M5.20898 8.05713C5.20898 8.07659 5.20898 8.07659 5.20898 8.07659V16.6991L9.9971 12.3586L5.20898 8.05713Z" fill="white"/>
<path d="M13.0911 12.5727L18.7941 7.60938C18.7746 7.60938 18.7746 7.60938 18.7551 7.60938H5.85059L11.3589 12.5532C11.8649 13.0009 12.6046 13.0009 13.0911 12.5727Z" fill="white"/>
<path d="M13.5984 13.1567C13.2091 13.4876 12.7225 13.6628 12.2359 13.6628C11.7494 13.6628 11.2433 13.4876 10.854 13.1372L10.5621 12.8647L5.6377 17.3414C5.65716 17.3414 5.67662 17.3609 5.69609 17.3609H18.7563L13.8709 12.9231L13.5984 13.1567Z" fill="white"/>
</svg>
