<svg width="25" height="25" viewBox="0 0 25 25" fill="none" xmlns="http://www.w3.org/2000/svg">
<path fill-rule="evenodd" clip-rule="evenodd" d="M12.498 25C5.60505 25 0 19.3909 0 12.498C0 5.60505 5.60505 0 12.498 0C19.3909 0 25 5.60505 25 12.498C25 19.3909 19.3909 25 12.498 25Z" fill="#319F1C"/>
<path d="M17.6509 13.5311C17.2013 13.465 16.7516 13.3548 16.3223 13.2225C15.7704 13.0462 15.1777 13.2005 14.7893 13.6193L13.9513 14.5231C12.3569 13.5752 11.0283 12.1644 10.1698 10.4449L10.9874 9.54112C11.3962 9.10023 11.5393 8.48299 11.3758 7.8878C11.2327 7.42487 11.1509 6.93989 11.0896 6.45492C11.0079 5.61724 10.3538 5 9.57704 5H7.53302C7.10377 5 6.69497 5.17635 6.38836 5.52906C6.14308 5.83768 6 6.23448 6 6.65332C6 6.69741 6 6.7415 6 6.78558C6.14308 8.37277 6.53145 9.91587 7.16509 11.3487C7.7783 12.7375 8.61635 14.0161 9.61792 15.0963C10.6399 16.1985 11.805 17.1023 13.1132 17.7636C14.4418 18.447 15.8522 18.8658 17.3239 19.0201C17.7531 19.0422 18.1824 18.8879 18.5094 18.5793C18.816 18.2706 19 17.8298 19 17.3668V15.1624C19 14.3247 18.4277 13.6193 17.6509 13.5311Z" fill="white"/>
</svg>
