<svg width="35" height="35" viewBox="0 0 35 35" fill="none" xmlns="http://www.w3.org/2000/svg">
<g clip-path="url(#clip0)">
<path d="M34.8077 16.9031C34.4953 16.4663 27.0475 6.22046 17.5687 6.22046C8.08921 6.22046 0.504663 16.4663 0.192261 16.9031C-0.0640869 17.26 -0.0640869 17.7405 0.192261 18.0967C0.504663 18.5335 8.08921 28.7793 17.5687 28.7793C27.0475 28.7793 34.4953 18.5335 34.8077 18.0966C35.0641 17.7405 35.0641 17.2599 34.8077 16.9031ZM17.5687 24.6776C13.6113 24.6776 10.2542 21.4572 10.2542 17.4998C10.2542 13.5424 13.6113 10.322 17.5687 10.322C21.5261 10.322 24.7465 13.5424 24.7465 17.4998C24.7465 21.4572 21.5261 24.6776 17.5687 24.6776Z" fill="#319F1C"/>
<path d="M17.5693 14.4238C15.8727 14.4238 14.3564 15.804 14.3564 17.5C14.3564 19.1967 15.8727 20.5762 17.5693 20.5762C19.2653 20.5762 20.6455 19.1967 20.6455 17.5C20.6455 15.804 19.2653 14.4238 17.5693 14.4238Z" fill="#319F1C"/>
</g>
<defs>
<clipPath id="clip0">
<rect width="35" height="35" fill="white"/>
</clipPath>
</defs>
</svg>
