<svg width="30" height="30" viewBox="0 0 30 30" fill="none" xmlns="http://www.w3.org/2000/svg">
<g clip-path="url(#clip0)">
<path d="M7.01033 6.08292L18.9699 2.81847L18.3365 1.53829C17.9222 0.70617 16.9115 0.362542 16.0794 0.776916L5.37305 6.08292H7.01033Z" fill="#319F1C"/>
<path d="M22.6826 2.91272C22.5344 2.91272 22.3861 2.93293 22.2379 2.97336L19.4283 3.74147L10.8477 6.08285H20.5871H24.8319L24.3064 4.15584C24.1043 3.40458 23.4237 2.91272 22.6826 2.91272Z" fill="#319F1C"/>
<path d="M26.5873 7.26208H26.2033H25.6811H25.1589H21.1735H6.52892H4.60865H2.99158H2.69175H1.68782C1.15553 7.26208 0.680517 7.50801 0.370578 7.89544C0.229085 8.07399 0.12128 8.27949 0.0606401 8.50521C0.0235823 8.6467 0 8.79493 0 8.94653V9.14867V11.0689V27.7146C0 28.6445 0.754632 29.3991 1.68445 29.3991H26.5839C27.5138 29.3991 28.2684 28.6445 28.2684 27.7146V23.015H18.2729C16.6929 23.015 15.4093 21.7315 15.4093 20.1515V18.6085V18.0863V17.5642V16.4053C15.4093 15.6304 15.7192 14.9264 16.2212 14.4109C16.6659 13.9527 17.2622 13.6428 17.9293 13.5653C18.0404 13.5518 18.155 13.5451 18.2695 13.5451H26.8669H27.3891H27.9113H28.2684V8.94653C28.2718 8.01672 27.5171 7.26208 26.5873 7.26208Z" fill="#319F1C"/>
<path d="M29.4513 15.1553C29.2828 15.0003 29.0841 14.8824 28.8617 14.8049C28.6899 14.7477 28.508 14.714 28.316 14.714H28.2722H28.2385H27.7163H25.8331H18.2733C17.3435 14.714 16.5889 15.4686 16.5889 16.3984V17.2373V17.7594V18.2816V20.148C16.5889 21.0778 17.3435 21.8324 18.2733 21.8324H28.2722H28.316C28.508 21.8324 28.6899 21.7987 28.8617 21.7415C29.0841 21.6674 29.2828 21.5461 29.4513 21.3911C29.7882 21.0845 30.0004 20.6398 30.0004 20.148V16.3984C30.0004 15.9065 29.7882 15.4618 29.4513 15.1553ZM21.7904 18.6084C21.7904 19.0733 21.4131 19.4506 20.9482 19.4506H20.389C19.9241 19.4506 19.5468 19.0733 19.5468 18.6084V18.0492C19.5468 17.7796 19.6714 17.5404 19.8702 17.3888C20.015 17.2777 20.1936 17.2069 20.389 17.2069H20.5305H20.9482C21.4131 17.2069 21.7904 17.5842 21.7904 18.0492V18.6084Z" fill="#319F1C"/>
</g>
<defs>
<clipPath id="clip0">
<rect width="30" height="30" fill="white"/>
</clipPath>
</defs>
</svg>
