<svg width="31" height="31" viewBox="0 0 31 31" fill="none" xmlns="http://www.w3.org/2000/svg">
<g clip-path="url(#clip0)">
<path d="M21.5995 13.8217C21.8469 13.7643 22.023 13.5453 22.0259 13.2914V10.9159C22.0259 10.7716 21.9686 10.6333 21.8666 10.5314L14.7964 3.46118C14.584 3.24886 14.2398 3.24886 14.0274 3.46118L6.9572 10.5314C6.8552 10.6333 6.79788 10.7716 6.79785 10.9159V18.4913C6.79785 18.7916 7.04135 19.0351 7.34171 19.0351H8.42943C8.7298 19.0351 8.97329 18.7916 8.97329 18.4913V13.0527C8.97329 12.452 9.46028 11.965 10.061 11.965H13.3242C13.9249 11.965 14.4119 12.452 14.4119 13.0527V18.4913C14.4119 18.7916 14.6554 19.0351 14.9557 19.0351H15.901C16.1389 19.0336 16.3482 18.8776 16.4176 18.6501C17.2061 16.2607 19.1605 14.4396 21.5995 13.8217Z" fill="#319F1C"/>
<path d="M9.51772 26.3772C9.51864 25.8024 9.77873 25.2587 10.2257 24.8973C10.6726 24.5358 11.2587 24.3952 11.821 24.5145C12.7112 24.7196 13.3376 25.5182 13.3247 26.4316V27.7369C13.3247 28.0372 13.5682 28.2807 13.8686 28.2807H14.9563C15.2567 28.2807 15.5002 28.0372 15.5002 27.7369V26.5252C15.53 24.3772 13.9266 22.5565 11.7921 22.3146C10.6619 22.2127 9.54016 22.5858 8.69602 23.3443C7.85188 24.1028 7.36143 25.1784 7.34228 26.3131C7.34418 27.3138 6.59581 28.1571 5.60193 28.2742C5.07061 28.3199 4.54447 28.1407 4.15159 27.78C3.75872 27.4194 3.53513 26.9105 3.53527 26.3772V19.8509C3.53527 18.7996 4.3875 17.9474 5.43877 17.9474H5.7107V15.772H5.43877C3.18604 15.772 1.35983 17.5982 1.35983 19.8509V26.2353C1.32928 28.3198 2.84126 30.1074 4.90199 30.423C6.0672 30.5759 7.2418 30.2195 8.12556 29.4448C9.00932 28.6702 9.5166 27.5524 9.51772 26.3772Z" fill="#319F1C"/>
<path d="M12.7808 19.0351C13.0812 19.0351 13.3247 18.7916 13.3247 18.4912V13.0526H10.0615V18.4912C10.0615 18.7916 10.305 19.0351 10.6054 19.0351H12.7808Z" fill="#319F1C"/>
<path d="M7.34171 1.63159C7.04135 1.63159 6.79785 1.87509 6.79785 2.17545V6.07601L8.42943 4.44443V2.17545C8.42943 1.87509 8.18594 1.63159 7.88557 1.63159H7.34171Z" fill="#319F1C"/>
<path d="M13.6429 0.769031L3.91923 10.4927C3.70672 10.7051 3.7066 11.0495 3.91895 11.262C4.13131 11.4745 4.47574 11.4746 4.68824 11.2623L13.6429 2.30761C14.0676 1.88298 14.7562 1.88298 15.1809 2.30761L24.1356 11.2623C24.349 11.4684 24.6882 11.4654 24.898 11.2556C25.1078 11.0458 25.1107 10.7066 24.9046 10.4932L15.1809 0.769031C14.7562 0.344405 14.0676 0.344405 13.6429 0.769031Z" fill="#319F1C"/>
<path d="M23.3862 14.6842C19.932 14.6842 17.1318 17.4844 17.1318 20.9386C17.1318 24.3928 19.932 27.193 23.3862 27.193C26.8404 27.193 29.6406 24.3928 29.6406 20.9386C29.6367 17.486 26.8388 14.6881 23.3862 14.6842ZM23.3862 25.5614C21.735 25.5596 20.3968 24.2214 20.395 22.5702C20.395 21.4504 21.7291 18.2133 22.4269 16.8944C22.616 16.5404 22.9848 16.3193 23.3862 16.3193C23.7876 16.3193 24.1564 16.5404 24.3456 16.8944C25.0434 18.2133 26.3774 21.4504 26.3774 22.5702C26.3757 24.2214 25.0375 25.5596 23.3862 25.5614Z" fill="#319F1C"/>
<path d="M12.6477 31H16.1763C16.3716 30.9998 16.5518 30.8948 16.6484 30.7251C16.7449 30.5553 16.7431 30.3468 16.6434 30.1788L16.3209 29.6349C16.223 29.4698 16.0452 29.3685 15.8532 29.3684H12.9708C12.7787 29.3685 12.601 29.4698 12.503 29.6349L12.1805 30.1788C12.0809 30.3468 12.0791 30.5553 12.1756 30.7251C12.2722 30.8948 12.4524 30.9998 12.6477 31Z" fill="#319F1C"/>
<path d="M21.4824 22.5702C21.4824 23.6214 22.3347 24.4737 23.3859 24.4737C24.4372 24.4737 25.2894 23.6214 25.2894 22.5702C25.2894 21.7636 24.1006 18.7583 23.3859 17.4035C22.6713 18.7583 21.4824 21.7636 21.4824 22.5702Z" fill="#319F1C"/>
</g>
<defs>
<clipPath id="clip0">
<rect width="31" height="31" fill="white"/>
</clipPath>
</defs>
</svg>
