<svg width="30" height="30" viewBox="0 0 30 30" fill="none" xmlns="http://www.w3.org/2000/svg">
<path d="M27.1144 6.20367L25.2469 0.600996C25.1273 0.242109 24.7914 0 24.4131 0H5.58503C5.20675 0 4.87089 0.242109 4.75125 0.600996L2.86834 6.24943C2.77904 6.51744 2.82392 6.81211 2.98916 7.04133C3.15433 7.27049 3.4197 7.40631 3.70218 7.40631H5.64744V22.5938H4.64349C4.1581 22.5938 3.76459 22.9873 3.76459 23.4727C3.76459 23.958 4.1581 24.3516 4.64349 24.3516H5.64738V29.1211C5.64738 29.6065 6.04089 30 6.52628 30H23.4716C23.957 30 24.3505 29.6065 24.3505 29.1211V24.3516H25.3545C25.8399 24.3516 26.2334 23.9581 26.2334 23.4727C26.2334 22.9873 25.8399 22.5938 25.3545 22.5938H24.3505V7.40631H26.2959C26.2963 7.40631 26.2968 7.40631 26.2971 7.40631C26.7825 7.40631 27.176 7.01279 27.176 6.5274C27.176 6.41309 27.1541 6.30387 27.1144 6.20367ZM22.5928 22.5938H22.5927H7.40519V7.40631H14.12V11.2969H12.1748C11.6894 11.2969 11.2959 11.6904 11.2959 12.1758V17.8241C11.2959 18.3096 11.6894 18.703 12.1748 18.703H17.8233C18.3087 18.703 18.7022 18.3096 18.7022 17.8241V12.1758C18.7022 11.6904 18.3087 11.2969 17.8233 11.2969H15.8779V7.40631H22.5928V22.5938Z" fill="#319F1C"/>
</svg>
